<svg xmlns="http://www.w3.org/2000/svg" xml:space="preserve" x="0" y="0" viewBox="0 0 500 500">
  <circle cx="250" cy="250" r="250" fill="#9391fe" />
  <path d="M203.5 262.2c21.4-3.5 36-23.7 32.5-45.1s-23.7-36-45.1-32.5-36 23.7-32.5 45.1 23.7 36 45.1 32.5M306.3 262.2c21.4-3.5 36-23.7 32.5-45.1s-23.7-36-45.1-32.5-36 23.7-32.5 45.1 23.7 36 45.1 32.5" fill="#fff" />
  <path d="M248.5 61C141.8 61 55.2 149.3 55.2 258h49.4c0-81.5 63.9-147.6 143.9-147.6S392.4 176.5 392.4 258h49.4c.1-108.7-86.5-197-193.3-197" fill="#fff" />
</svg>
