<svg xmlns="http://www.w3.org/2000/svg" xml:space="preserve" x="0" y="0" viewBox="0 0 2500 2500">
  <circle cx="1250" cy="1250" r="1250" fill="#59E692" />
  <path d="M1629,681l-262,388c-4,5-6,11-6,17c0,15,12,28,28,28c7,0,14-3,20-8l257-223c2-2,4-3,7-3c6,0,10,5,10,10l0,0v699 c0,6-5,10-10,10c-3,0-6-1-8-4L886,663c-25-30-62-47-101-47h-27c-74,0-133,60-133,133v985c0,74,60,133,133,133l0,0 c46,0,89-24,114-64l262-388c4-5,6-11,6-17c0-15-12-28-28-28c-7,0-14,3-20,8l-257,223c-2,2-4,3-7,3c-6,0-10-5-10-10l0,0V895 c0-6,5-10,10-10c3,0,6,1,8,4l779,932c25,30,62,47,101,47h28c73,0,133-60,133-133l0,0V750c0-74-60-133-133-133l0,0 c-46,0-89,24-114,64l0,0H1629z"/>
</svg>
