<svg xmlns="http://www.w3.org/2000/svg" xml:space="preserve" viewBox="0 0 500 500">
  <path
    d="M267.7 500H250C111.9 500 0 388.1 0 250S111.9 0 250 0s250 111.9 250 250c0 12.4-.9 24.5-2.6 36.4h-35c2-11.8 3.1-24 3.1-36.4C465.4 131 369 34.6 250 34.6S34.6 131 34.6 250 131.1 465.4 250 465.4h128.1c-32.7 19.5-70.2 31.8-110.4 34.6M426 428.4H250c-98.5 0-178.4-79.9-178.4-178.4S151.5 71.6 250 71.6 428.4 151.5 428.4 250c0 12.5-1.3 24.7-3.7 36.4h-35.5c3-11.6 4.6-23.8 4.6-36.4 0-79.4-64.4-143.8-143.8-143.8S106.2 170.6 106.2 250 170.6 393.8 250 393.8h205.3c-8.7 12.4-18.5 24-29.3 34.6m-176-71.6h226.8c5.2-11.1 9.7-22.6 13.3-34.6H250c-39.9 0-72.2-32.3-72.2-72.2s32.3-72.2 72.2-72.2 72.2 32.3 72.2 72.2c0 13.3-3.6 25.7-9.8 36.4h38c4.1-11.4 6.4-23.6 6.4-36.4 0-59-47.8-106.8-106.8-106.8S143.2 191 143.2 250 191 356.8 250 356.8"
    fill="#fff"
    fillRule="evenodd"
    clipRule="evenodd"
  />
</svg>