<svg xmlns="http://www.w3.org/2000/svg" viewBox="0 0 200 200" fill="none">
  <path
    fill="#fff"
    d="M21.886 184.247c-23.902-22.171-25.305-59.521-3.133-83.423l76.008-81.938c22.171-23.902 59.521-25.305 83.423-3.133 23.901 22.171 25.304 59.521 3.132 83.423l-76.008 81.939c-22.171 23.901-59.52 25.304-83.423 3.132"
  />
  <path
    fill="#5FCB88"
    fill-rule="evenodd"
    d="M18.753 100.824c-22.172 23.902-20.769 61.252 3.133 83.423 23.901 22.172 61.25 20.769 83.422-3.132l40.502-43.663-86.555-80.29zm21.938 23.023a2.099 2.099 0 1 0-3.26-2.644l-2.485 3.064a2.099 2.099 0 1 0 3.26 2.643zm-6.139 11.934a2.1 2.1 0 0 0-4.126-.771c-1.145 6.132-.725 12.229 1.066 17.708a2.099 2.099 0 1 0 3.99-1.304c-1.566-4.791-1.949-10.174-.93-15.633m5.074 24.489a2.099 2.099 0 1 0-3.013 2.923l3.476 3.582a2.099 2.099 0 1 0 3.013-2.923z"
    clip-rule="evenodd"
  />
  <path
    fill="#629393"
    fillOpacity="0.4"
    fill-rule="evenodd"
    d="M3.066 138.152c2.702 8.883 7.72 17.191 15.018 23.96 21.99 20.398 56.351 19.108 76.749-2.882l66.73-71.937c20.398-21.989 19.107-56.35-2.882-76.748A54.2 54.2 0 0 0 142.527.169a58.78 58.78 0 0 1 35.657 15.584c23.901 22.171 25.304 59.521 3.132 83.423l-76.008 81.939c-22.171 23.901-59.52 25.304-83.423 3.132C8.608 171.93 2.273 154.929 3.066 138.152"
    clip-rule="evenodd"
  />
  <path
    fill="#1D3934"
    fill-rule="evenodd"
    d="m140.341 130.232 34.435-37.123c18.822-20.29 17.631-51.995-2.659-70.816s-51.995-17.63-70.816 2.659L66.865 62.074zm40.975-31.056c22.172-23.902 20.769-61.252-3.132-83.423-23.902-22.172-61.252-20.77-83.423 3.133L54.259 62.548l86.555 80.29z"
    clip-rule="evenodd"
  />
  <path
    fill="#1D3934"
    fill-rule="evenodd"
    d="m25.293 106.891 35.506-38.277-6.54-6.066-35.506 38.276c-22.172 23.902-20.769 61.252 3.133 83.423 23.901 22.172 61.25 20.769 83.422-3.132l35.506-38.277-6.539-6.067-35.506 38.277c-18.822 20.29-50.527 21.48-70.817 2.659s-21.48-50.526-2.66-70.816"
    clip-rule="evenodd"
  />
</svg>
