<svg xmlns="http://www.w3.org/2000/svg" viewBox="0 0 2082 680" fill="none">
  <g fill="#EAAC08" fill-rule="evenodd" clip-path="url(#wlfi_svg__a)" clip-rule="evenodd">
    <path d="M742.73 275.49c5.684.971 9.575 7.012 8.756 13.486-.87 6.473-6.144 10.95-11.828 9.979l-301.496-52.919c32.362 44.881 81.775 81.887 132.109 94.294l349.526 67.969L478 663.559c53.816 25.3 114.699 20.391 164.675-12.73l9.166-6.474L814.725 528.97c4.506-3.182 10.497-1.618 13.313 3.507 2.816 5.178 1.434 11.921-3.072 15.158L655.937 667.389c46.597 21.955 99.594 14.835 140.251-18.179l128.679-113.011c4.199-3.722 10.292-2.805 13.518 1.996 3.277 4.801 2.458 11.705-1.741 15.427L805.303 668.954c45.726 5.718 106.046-8.793 143.63-40.296 43.473-39.595 97.747-97.314 145.267-123.639 29.44-16.291 62.22-24.598 103.23-18.61 27.96 11.004 57.4 16.237 86.95 15.374 19.46 3.776 36.51 16.668 47.11 35.333 6.14-29.993-5.23-64.786-31.14-73.687.36-10.897-4.25-20.984-11.88-26.918l-7.01-3.938-187.31-104.812c-87.92-49.197-175.838-98.447-263.757-147.644-39.479-20.93-80.699-37.328-122.994-48.926-25.603-7.013-48.133-10.789-74.197-15.536L0 0c34.768 50.545 80.7 78.326 135.438 88.198l446.969 80.807c5.684 1.025 9.524 7.067 8.602 13.54s-6.195 10.843-11.879 9.818l-354.8-64.139c26.217 39.756 64.672 66.566 107.53 75.143l6.811 1.187zM1873.24 127.523l-359.16 66.35c-5.53.971-10.7-3.398-11.52-9.872-.87-6.473 2.92-12.515 8.45-13.485l459.31-84.854C2015.54 75.252 2055.68 44.612 2082 0l-656.45 125.095h-.05c-52.64 10.034-87.77 23.951-135.59 50.437l-214.04 118.514 177.58 98.339c100.36-20.66 192.53-34.955 292.94-55.616 48.04-11.436 90.23-45.096 116.75-93.592l-306.77 56.695c-5.53.971-10.7-3.398-11.52-9.872-.87-6.473 2.92-12.514 8.45-13.485l398.58-73.633c46.03-9.872 88.48-36.143 121.46-75.306z" />
  </g>
  <defs>
    <clipPath id="wlfi_svg__a">
      <path fill="#fff" d="M0 0h2082v680H0z" />
    </clipPath>
  </defs>
</svg>
